# xmcd CD database file
#
# Track frame offsets:
#	150
#	25053
#	45283
#	74523
#	94136
#	112857
#	135608
#	155777
#	179083
#	191862
#	213011
#
# Disc length: 3064 seconds
#
# Revision: 1
# Processed by: cddbd v1.5.2PL0 Copyright (c) Steve Scherf et al.
# Submitted via: CDex 1.51
#
DISCID=980bf60b
DTITLE=土岐麻子 - TALKIN'
DYEAR=2007
DGENRE=Jazz
TTITLE0=モンスターを飼い馴らせ
TTITLE1=Hoo-Oon
TTITLE2=ファンタジア
TTITLE3=My Sunny Rainy
TTITLE4=青空のかけら
TTITLE5=Talk Show
TTITLE6=眠れる森のただの女
TTITLE7=サーファー・ガール
TTITLE8=Walk On
TTITLE9=風とうわさ
TTITLE10=カモンナ・マイ・ハウス
EXTD=YEAR: 2007
EXTT0=
EXTT1=
EXTT2=
EXTT3=
EXTT4=
EXTT5=
EXTT6=
EXTT7=
EXTT8=
EXTT9=
EXTT10=
PLAYORDER=
